<svg id="Layer_1" viewBox="0 0 512 512" xmlns="http://www.w3.org/2000/svg" data-name="Layer 1"><rect fill="#3bc7f5" height="480" rx="240" width="480" x="16" y="16"/><g fill-rule="evenodd"><path d="m274.75 495.265c123.325-9.647 221.25-113.573 221.25-239.265 0-125.692-97.925-229.619-221.25-239.265-123.325 9.647-221.25 113.573-221.25 239.265 0 125.692 97.925 229.619 221.25 239.265z" fill="#b3eafb"/><path d="m115.266 43.46c-7.01 5.641-11.422 13.831-11.422 22.948s4.412 17.307 11.422 22.948c7.01-5.641 11.422-13.831 11.422-22.948s-4.412-17.307-11.422-22.948z" fill="#50bc5d"/><path d="m161.161 89.355c-5.641-7.01-13.831-11.422-22.948-11.422s-17.307 4.412-22.948 11.422c5.641 7.01 13.831 11.422 22.948 11.422s17.307-4.412 22.948-11.422z" fill="#50bc5d"/><path d="m115.266 135.25c7.01-5.641 11.422-13.831 11.422-22.948s-4.412-17.307-11.422-22.947c-7.01 5.641-11.422 13.831-11.422 22.947s4.412 17.307 11.422 22.948z" fill="#50bc5d"/><path d="m69.371 89.355c5.641 7.01 13.831 11.422 22.947 11.422s17.307-4.412 22.948-11.422c-5.641-7.01-13.831-11.422-22.948-11.422s-17.307 4.412-22.947 11.422z" fill="#50bc5d"/><path d="m115.266 288.357c1.003-18.343-5.498-37.02-19.51-51.032-14.012-14.013-32.689-20.513-51.032-19.51-1.003 18.343 5.498 37.02 19.51 51.032s32.689 20.513 51.032 19.51z" fill="#50bc5d"/><path d="m115.266 200.137c-1.409-25.775 7.725-52.02 27.415-71.71s45.934-28.825 71.709-27.415c1.409 25.775-7.725 52.019-27.415 71.709s-45.934 28.825-71.709 27.415z" fill="#50bc5d"/><path d="m115.266 200.137c1.409-25.775-7.725-52.02-27.416-71.71-19.69-19.69-45.934-28.825-71.709-27.415-1.409 25.775 7.725 52.019 27.416 71.709 19.69 19.69 45.934 28.825 71.709 27.415z" fill="#50bc5d"/><path d="m109.266 135.25c0-3.314 2.686-6 6-6s6 2.686 6 6v204.528c0 3.314-2.686 6-6 6s-6-2.686-6-6z" fill="#063"/><path d="m361.139 205.907c-.716-13.09 3.923-26.417 13.922-36.416s23.327-14.638 36.417-13.922c.716 13.09-3.923 26.417-13.922 36.416s-23.327 14.638-36.417 13.922z" fill="#50bc5d"/><path d="m361.139 205.907c.716-13.09-3.923-26.417-13.923-36.416-9.999-9.999-23.327-14.638-36.416-13.922-.716 13.09 3.923 26.417 13.922 36.416s23.327 14.638 36.417 13.922z" fill="#50bc5d"/><path d="m361.139 142.954c-1.006-18.393 5.513-37.121 19.564-51.172 14.05-14.051 32.778-20.569 51.172-19.564 1.006 18.393-5.513 37.121-19.564 51.172-14.05 14.051-32.778 20.569-51.172 19.564z" fill="#50bc5d"/><path d="m361.139 142.954c1.006-18.393-5.513-37.121-19.564-51.172-14.05-14.051-32.778-20.569-51.172-19.564-1.006 18.393 5.513 37.121 19.564 51.172 14.05 14.051 32.778 20.569 51.172 19.564z" fill="#50bc5d"/><path d="m355.139 96.651c0-3.314 2.686-6 6-6s6 2.686 6 6v136.317c0 3.314-2.686 6-6 6s-6-2.686-6-6z" fill="#063"/><path d="m23.196 314.192c123.718 8.387 232.059 75.199 297.514 172.881-20.606 5.809-42.311 8.927-64.71 8.927-111.949 0-206.621-77.687-232.804-181.808z" fill="#c4d70d"/><path d="m494.411 228.563c-17.633-2.468-35.625-3.774-53.91-3.774-149.306 0-279.679 85.109-345.063 209.195 42.608 38.495 98.97 62.015 160.562 62.015 132 0 240-108 240-240 0-9.276-.552-18.428-1.589-27.437z" fill="#4eb241"/><path d="m115.266 288.357c-1.003-18.343 5.498-37.02 19.51-51.032 14.012-14.013 32.689-20.513 51.032-19.51 1.003 18.343-5.498 37.02-19.51 51.032s-32.689 20.513-51.032 19.51z" fill="#50bc5d"/><path d="m495.929 250.433c-3.466-.092-6.941-.144-10.429-.144-151.365 0-283.279 87.466-347.738 214.344 34.954 19.943 75.324 31.366 118.238 31.366 132 0 240-108 240-240 0-1.861-.029-3.716-.071-5.567z" fill="#83c035"/><path d="m495.578 270.001c-132.668 17.158-244.977 101.703-301.198 217.913 19.683 5.263 40.337 8.086 61.62 8.086 127.3 0 232.263-100.45 239.577-225.999z" fill="#a3ca28"/><path d="m287.252 493.95c103.279-13.584 186.423-93.49 204.903-195.202-91.37 37.501-163.842 108.305-204.903 195.202z" fill="#c4d70d"/></g></svg>